# xmcd
#
# Track frame offsets: 
#        150
#        26787
#        71560
#        91989
#        113688
#        125617
#        138312
#
# Disc length: 2042 seconds
#
# Revision: 1
# Processed by: cddbd v1.5.2PL0 Copyright (c) Steve Scherf et al.
# Submitted via: ExactAudioCopy v0.99pb4
#
DISCID=5d07f807
DTITLE=Mutzie - Light Of Your Shadow
DYEAR=1970
DGENRE=Psychedelic Rock
TTITLE0=Highway
TTITLE1=The Light of Your Shadow
TTITLE2=Cocaine Blues
TTITLE3=Jessie Fly
TTITLE4=Because of You
TTITLE5=The Game
TTITLE6=Daily Cycle
EXTD=
EXTT0=
EXTT1=
EXTT2=
EXTT3=
EXTT4=
EXTT5=
EXTT6=
PLAYORDER=
